<svg xmlns="http://www.w3.org/2000/svg" viewBox="0 0 74 75"><defs><style>.cls-1,.cls-2{fill:#3953a4;}.cls-1{opacity:0.1;isolation:isolate;}</style></defs><title>Asset 5dots</title><g id="Layer_2" data-name="Layer 2"><g id="Layer_1-2" data-name="Layer 1"><rect class="cls-1" width="74" height="75" rx="5"/><path class="cls-2" d="M34,26.86a.75.75,0,0,0,.21-1,.74.74,0,0,0-1-.2l-.84.55a5.22,5.22,0,0,1,9.57-.9.73.73,0,0,0,.44.37.75.75,0,0,0,.57-.05.73.73,0,0,0,.37-.45.76.76,0,0,0-.07-.57,6.7,6.7,0,0,0-12.3,1.16l-.43-.65a.75.75,0,1,0-1.24.83l1.49,2.23a.77.77,0,0,0,.47.32.79.79,0,0,0,.56-.12Z"/><path class="cls-2" d="M35.1,55.27a.75.75,0,0,1-.53-.22l-1.49-1.49a.74.74,0,0,1,0-1.05L34.57,51a.74.74,0,0,1,1,0,.73.73,0,0,1,0,1l-1,1,1,1h0a.74.74,0,0,1,.17.81.75.75,0,0,1-.69.46Z"/><path class="cls-2" d="M39.56,55.27a.73.73,0,0,1-.68-.46A.72.72,0,0,1,39,54l1-1-1-1h0a.74.74,0,0,1,1.05-1l1.49,1.49a.74.74,0,0,1,0,1.05l-1.49,1.49a.75.75,0,0,1-.53.22Z"/><path class="cls-2" d="M36.59,56A.74.74,0,0,1,36,55.7a.73.73,0,0,1-.1-.67l1.49-4.46a.74.74,0,0,1,.94-.48.75.75,0,0,1,.47.95L37.29,55.5a.73.73,0,0,1-.7.51Z"/><path class="cls-2" d="M50.73,55.27a.75.75,0,0,1-.53-.22l-1.49-1.49a.74.74,0,0,1,0-1.05L50.2,51a.75.75,0,0,1,1.06,1l-1,1,1,1h0a.74.74,0,0,1-.53,1.27Z"/><path class="cls-2" d="M55.2,55.27A.74.74,0,0,1,54.67,54l1-1-1-1h0a.74.74,0,0,1,1-1l1.49,1.49a.74.74,0,0,1,0,1.05l-1.49,1.49a.74.74,0,0,1-.52.22Z"/><path class="cls-2" d="M52.22,56a.74.74,0,0,1-.61-.31.76.76,0,0,1-.1-.67L53,50.57a.74.74,0,0,1,.94-.48.75.75,0,0,1,.47.95L52.93,55.5a.75.75,0,0,1-.71.51Z"/><path class="cls-2" d="M23.93,55.27a.75.75,0,0,1-.69-.46.74.74,0,0,1,.17-.81l1-1-1-1h0a.74.74,0,0,1,0-1,.75.75,0,0,1,1.05,0L26,52.51a.74.74,0,0,1,0,1.05l-1.49,1.49a.75.75,0,0,1-.53.22Z"/><path class="cls-2" d="M19.47,55.27a.75.75,0,0,1-.53-.22l-1.49-1.49a.74.74,0,0,1,0-1.05L18.94,51a.74.74,0,0,1,1,1l-1,1,1,1h0a.74.74,0,0,1,.16.81.73.73,0,0,1-.68.46Z"/><path class="cls-2" d="M21,56a.74.74,0,0,1-.6-.31.73.73,0,0,1-.1-.67l1.49-4.46a.74.74,0,0,1,.94-.48.75.75,0,0,1,.47.95L21.66,55.5A.73.73,0,0,1,21,56Z"/><path class="cls-2" d="M53.71,46.38V44.85a2.25,2.25,0,0,0-2.24-2.24H50a.74.74,0,0,1-.74-.74V40.38h3a7.44,7.44,0,1,0-3-14.25,11.91,11.91,0,0,0-23.5-1.73,8.35,8.35,0,0,0-2.52-.4,8.19,8.19,0,1,0,0,16.38h1.49v1.49a.71.71,0,0,1-.22.52.75.75,0,0,1-.53.22H22.44a2.24,2.24,0,0,0-2.23,2.24v1.66a6.62,6.62,0,1,0,1.49-.18V44.85a.74.74,0,0,1,.74-.75h1.49a2.24,2.24,0,0,0,2.24-2.23V40.38H36.59v6a6.7,6.7,0,1,0,1.49,0v-6h9.67v1.49a2.24,2.24,0,0,0,.66,1.58A2.19,2.19,0,0,0,50,44.1h1.49a.75.75,0,0,1,.75.75v1.53a6.7,6.7,0,1,0,1.49,0ZM26.91,53a5.22,5.22,0,1,1-1.53-3.68A5.21,5.21,0,0,1,26.91,53Zm15.63,0A5.22,5.22,0,1,1,41,49.35,5.21,5.21,0,0,1,42.54,53Zm-26-20.84a6.71,6.71,0,0,1,6.7-6.7A6.47,6.47,0,0,1,26,26.1a.75.75,0,0,0,.67,0,.73.73,0,0,0,.38-.55A10.42,10.42,0,0,1,47.75,27v.35a.72.72,0,0,0,.37.69.75.75,0,0,0,.79,0,6,6,0,1,1,3.31,10.9h-29a6.69,6.69,0,0,1-6.7-6.7ZM53,58.24a5.21,5.21,0,1,1,3.68-1.52A5.19,5.19,0,0,1,53,58.24Z"/><path class="cls-2" d="M45.39,29.54,43.9,27.31a.77.77,0,0,0-.47-.32.8.8,0,0,0-.56.12l-2.23,1.48a.73.73,0,0,0-.32.48.74.74,0,0,0,1.15.76l.84-.56a5.21,5.21,0,0,1-9.49,1.06.75.75,0,0,0-1-.28.77.77,0,0,0-.35.46.73.73,0,0,0,.08.56,6.69,6.69,0,0,0,12.19-1.35l.43.65h0a.75.75,0,1,0,1.24-.83Z"/></g></g></svg>