<svg xmlns="http://www.w3.org/2000/svg" viewBox="0 0 74 75"><defs><style>.cls-1,.cls-2{fill:#3953a4;}.cls-1{opacity:0.1;isolation:isolate;}</style></defs><title>Asset 3dots</title><g id="Layer_2" data-name="Layer 2"><g id="Layer_1-2" data-name="Layer 1"><rect class="cls-1" width="74" height="75" rx="5"/><path class="cls-2" d="M60.8,40.21a9.18,9.18,0,0,0-5.06-2.79,17.11,17.11,0,0,0-1.34-5.77,17.44,17.44,0,0,0-31.5-1.33,12.79,12.79,0,0,0-.09,25.51l0,.07h32v-.06a9.31,9.31,0,0,0,6-15.63ZM54,53.5h-.2l-1,0v.06H24.68v0h-.92a10.42,10.42,0,0,1-.09-20.84h.74l.32-.67a15.07,15.07,0,0,1,28.69,6.46v1.12l1.1.08A6.94,6.94,0,0,1,54,53.5Z"/><path class="cls-2" d="M31.85,43.54a.65.65,0,0,0-.7-.6l-.57,0A4,4,0,0,0,30,41.91l.37-.44a.64.64,0,0,0-.06-.91l-.56-.48a.65.65,0,0,0-.91.07l-.38.43a4,4,0,0,0-1.13-.37l-.05-.58a.64.64,0,0,0-.69-.6l-.73,0a.65.65,0,0,0-.6.7l0,.57a4.3,4.3,0,0,0-1.07.54l-.43-.37a.67.67,0,0,0-.92.06l-.48.55a.69.69,0,0,0-.15.48.63.63,0,0,0,.22.44l.44.38a4,4,0,0,0-.38,1.13l-.57,0a.64.64,0,0,0-.6.69l.05.73a.64.64,0,0,0,.7.6l.57,0a4.3,4.3,0,0,0,.54,1.07l-.38.43A.64.64,0,0,0,23,48l.55.48a.62.62,0,0,0,.47.15.65.65,0,0,0,.45-.22l.37-.44a4.14,4.14,0,0,0,1.14.38l0,.57a.67.67,0,0,0,.7.61l.72-.06a.64.64,0,0,0,.6-.69l0-.58A4,4,0,0,0,29,47.67l.44.38a.63.63,0,0,0,.91-.07l.48-.55a.65.65,0,0,0-.07-.92l-.43-.37A4.12,4.12,0,0,0,30.72,45l.58,0a.65.65,0,0,0,.6-.7Zm-5,3.31a2.57,2.57,0,1,1-.38-5.13,2.53,2.53,0,0,1,1.09.15,2.58,2.58,0,0,1-.71,5Z"/><path class="cls-2" d="M48.35,37.18a1.09,1.09,0,0,0-1.17-1l-1,.07a6.9,6.9,0,0,0-.9-1.8l.63-.73a1.08,1.08,0,0,0-.11-1.54l-.93-.8a1.11,1.11,0,0,0-1.54.11l-.63.73a7,7,0,0,0-1.91-.63l-.07-1a1.1,1.1,0,0,0-1.17-1l-1.22.09a1.09,1.09,0,0,0-1,1.18l.07,1a6.9,6.9,0,0,0-1.8.9l-.73-.63a1.13,1.13,0,0,0-1.55.11l-.8.93a1.11,1.11,0,0,0-.26.8,1.07,1.07,0,0,0,.38.74l.73.64a6.81,6.81,0,0,0-.63,1.91l-1,.07a1.1,1.1,0,0,0-1,1.17l.09,1.22a1.1,1.1,0,0,0,1.17,1l1-.07a6.9,6.9,0,0,0,.9,1.8l-.63.73A1,1,0,0,0,33,44a1.08,1.08,0,0,0,.37.75l.93.8a1.09,1.09,0,0,0,.79.27,1.12,1.12,0,0,0,.75-.38l.64-.74a6.87,6.87,0,0,0,1.9.64l.07,1a1.1,1.1,0,0,0,1.18,1l1.22-.09a1.1,1.1,0,0,0,1-1.17l-.07-1a6.86,6.86,0,0,0,1.79-.91l.74.64a1.08,1.08,0,0,0,.79.26,1.06,1.06,0,0,0,.75-.38l.8-.92a1.11,1.11,0,0,0-.11-1.55l-.74-.63a6.82,6.82,0,0,0,.64-1.91l1-.07a1.1,1.1,0,0,0,1-1.17Zm-8.42,5.57a4.43,4.43,0,0,1-1.84-.26,4.33,4.33,0,0,1,1.2-8.37,4.27,4.27,0,0,1,1.84.26,4.33,4.33,0,0,1-1.2,8.37Z"/></g></g></svg>