<svg xmlns="http://www.w3.org/2000/svg" viewBox="0 0 74 75"><defs><style>.cls-1,.cls-2{fill:#3953a4;}.cls-1{opacity:0.1;isolation:isolate;}</style></defs><title>Asset 7dots</title><g id="Layer_2" data-name="Layer 2"><g id="Layer_1-2" data-name="Layer 1"><rect class="cls-1" width="74" height="75" rx="5"/><path class="cls-2" d="M26.48,50.5h2.24v3.35h0a1.1,1.1,0,0,0,.32.79,1.13,1.13,0,0,0,.79.33H45.48a1.13,1.13,0,0,0,.79-.33,1.1,1.1,0,0,0,.32-.79V50.5h3.35a10.06,10.06,0,1,0,0-20.11,12.29,12.29,0,0,0-24.07-2.24,11.18,11.18,0,1,0,.61,22.35Zm17.88,2.23H31v-10H44.36ZM42.12,40.44H33.19V39.32a4.47,4.47,0,0,1,4.46-4.48,4.46,4.46,0,0,1,4.47,4.49Zm-15.64-10h.23a1.11,1.11,0,0,0,1.11-.9,10.06,10.06,0,0,1,19.89,2,1.13,1.13,0,0,0,1.12,1.12h1.11a7.82,7.82,0,1,1,0,15.64H46.59v-6.7a1.15,1.15,0,0,0-.32-.79,1.13,1.13,0,0,0-.79-.33H44.36V39.32a6.71,6.71,0,0,0-13.41,0v1.12H29.83a1.12,1.12,0,0,0-1.11,1.12v6.7H26.48a8.94,8.94,0,1,1,0-17.87Z"/><path class="cls-2" d="M37.66,43.79A2.24,2.24,0,0,0,36.59,48a.92.92,0,0,0-.05.28v1.12h0a1.12,1.12,0,1,0,2.23,0V48.26a.92.92,0,0,0-.05-.28,2.24,2.24,0,0,0,1.11-1.53,2.27,2.27,0,0,0-.47-1.84,2.25,2.25,0,0,0-1.7-.82Z"/></g></g></svg>