<svg xmlns="http://www.w3.org/2000/svg" viewBox="0 0 74 75"><defs><style>.cls-1,.cls-2{fill:#3953a4;}.cls-1{opacity:0.1;isolation:isolate;}.cls-2{stroke:#3953a4;stroke-width:0.5px;}</style></defs><title>Asset 2dots</title><g id="Layer_2" data-name="Layer 2"><g id="Layer_1-2" data-name="Layer 1"><rect class="cls-1" width="74" height="75" rx="5"/><path class="cls-2" d="M46.45,28.38H44.86a6.44,6.44,0,0,0-6.44-6.44V20.35a8,8,0,0,1,8,8Z"/><path class="cls-2" d="M51.16,42.56H48.27a.79.79,0,0,1-.79-.79v-1.5l-.72-.09a1.37,1.37,0,0,1-1.14-1,8.57,8.57,0,0,0-.84-2,1.36,1.36,0,0,1,.1-1.51l.44-.58-1.61-1.6-.58.43a1.35,1.35,0,0,1-1.51.1,8.4,8.4,0,0,0-2-.84,1.37,1.37,0,0,1-1-1.14l-.09-.71H36.24l-.1.72a1.36,1.36,0,0,1-1,1.14,8.68,8.68,0,0,0-2,.83,1.36,1.36,0,0,1-1.51-.09L31,33.47l-1.61,1.61.44.57a1.36,1.36,0,0,1,.1,1.52,8.23,8.23,0,0,0-.84,2,1.36,1.36,0,0,1-1.14,1l-.72.1v1.49a.79.79,0,0,1-.79.8H25.16A9.18,9.18,0,0,1,16,33.41V33a9.17,9.17,0,0,1,9.16-9.16h.3l.12-.3.07-.16h0l0-.11,0,0h0c0-.06.05-.11.07-.16l.09-.19c0-.09.09-.18.13-.26a1,1,0,0,0,.07-.15c.08-.16.16-.3.24-.44l.08-.15.17-.28.08-.13a.78.78,0,0,1,.1-.15.36.36,0,0,1,.07-.1v0c.07-.1.14-.21.23-.32l.05-.09h0l.09-.13h0l0,0a.86.86,0,0,0,.07-.1l0,0,.06-.09c.07-.09.15-.18.22-.28h0l.21-.26.21-.24h0a2.39,2.39,0,0,0,.22-.23l.09-.1,0,0a.74.74,0,0,1,.12-.13l0,0,.08-.09.1-.09h0l.12-.11L29,18.7a.47.47,0,0,0,.1-.1h0l.37-.32,0,0,.1-.08.11-.09h0v0l.12-.09a0,0,0,0,1,0,0l.12-.1.14-.1.11-.08,0,0,.14-.1.11-.08.3-.2h0l0,0,.12-.07.19-.12s0,0,0,0l.21-.13.29-.16.29-.16.1-.05,0,0h0l.15-.07.29-.15.15-.07.16-.07h0l0,0,.1-.05.49-.2h0l.25-.09c.22-.08.46-.16.68-.22l.3-.08.05,0h0l.29-.07.17-.05.13,0,.48-.09.1,0,.13,0,.17,0h.13l.14,0,.46,0h.13l.17,0h1.88A13.79,13.79,0,0,1,51.94,26.36l0,.16s0,.08,0,.12l0,.11h0v.1a.43.43,0,0,1,0,0c0,.09,0,.18,0,.25v.14a1.1,1.1,0,0,1,0,.18,7.57,7.57,0,0,1-.93,15.09ZM49.06,41h2.1a6,6,0,0,0,.16-12,.79.79,0,0,1-.77-.74V28.2c0-.05,0-.09,0-.13h0V28a0,0,0,0,0,0,0v0a.76.76,0,0,0,0-.15v0a.37.37,0,0,0,0-.11v-.05a.59.59,0,0,1,0-.13h0a.49.49,0,0,1,0-.12h0c0-.06,0-.14,0-.22v0l0-.2a.29.29,0,0,1,0-.09v0a.59.59,0,0,0,0-.13,12.14,12.14,0,0,0-11.3-10H37.85l-.3,0h-.4l-.41,0-.11,0h-.14l-.13,0h0l-.1,0h-.09l-.43.09-.11,0h0l-.14,0h0L35.2,17h-.05l-.26.07-.6.2-.23.08-.44.18h0l-.07,0-.06,0-.14.06-.12.05h0l-.27.13-.17.08-.08,0a0,0,0,0,0,0,0l-.26.14-.25.14-.17.11h0l-.18.12h0l-.08.06,0,0-.25.18-.1.07-.12.08,0,0-.1.07-.12.09-.22.18,0,0-.08.06h0l-.08.07,0,0c-.1.09-.22.19-.33.3h0l-.1.1h0a.94.94,0,0,0-.1.1l-.1.1-.22.21-.1.1,0,0-.08.08-.2.22-.19.22-.18.22-.2.25h0l-.06.07,0,0a.36.36,0,0,1-.07.1l-.16.22h0l-.19.28,0,0a.35.35,0,0,0,0,.08h0l-.08.13a0,0,0,0,1,0,0l-.06.1h0l-.15.25h0l-.06.13-.21.38-.06.13-.11.23h0a1.19,1.19,0,0,0-.08.16l-.06.14,0,0,0,.07s0,0,0,0a.61.61,0,0,0-.05.12c-.08.19-.15.38-.22.57l0,.09v0s0,0,0,0v0a.79.79,0,0,1-.75.53h-.85A7.59,7.59,0,0,0,17.63,33v.38A7.59,7.59,0,0,0,25.21,41h.51v-.89a1.36,1.36,0,0,1,.49-1l0,0,0,0a1.38,1.38,0,0,1,.64-.26l.76-.1a10.21,10.21,0,0,1,.89-2.13l-.47-.62a1.38,1.38,0,0,1,.12-1.8l1.87-1.87a1.4,1.4,0,0,1,1.81-.12l.61.47a9.9,9.9,0,0,1,2.13-.89l.1-.76a1.39,1.39,0,0,1,1.36-1.19H38.7a1.39,1.39,0,0,1,1.36,1.19l.1.76a9.9,9.9,0,0,1,2.13.89l.61-.47a1.37,1.37,0,0,1,1.8.12l1.87,1.87a1.37,1.37,0,0,1,.12,1.8l-.46.62a10.17,10.17,0,0,1,.88,2.13l.76.1a1.34,1.34,0,0,1,.64.26s0,0,0,0h0s0,0,0,0a1.36,1.36,0,0,1,.49,1V41ZM26,39.45Zm0,0v0Zm24.6-11.19ZM28.74,18.9a0,0,0,0,0,0,0A0,0,0,0,1,28.74,18.9Z"/><path class="cls-2" d="M38.7,53.09H36.06A1.37,1.37,0,0,1,34.7,51.9l-.1-.76a9.66,9.66,0,0,1-2.13-.88l-.62.47a1.37,1.37,0,0,1-1.8-.13l-1.87-1.87a1.38,1.38,0,0,1-.12-1.8l.47-.61a9.9,9.9,0,0,1-.89-2.13l-.76-.1a1.39,1.39,0,0,1-1.19-1.36V40.08a1.34,1.34,0,0,1,.49-1h0l.07-.05a1.44,1.44,0,0,1,.63-.25l.76-.1a9.9,9.9,0,0,1,.89-2.13l-.47-.61a1.4,1.4,0,0,1,.12-1.81l1.87-1.87a1.38,1.38,0,0,1,1.8-.12l.62.47a10.21,10.21,0,0,1,2.13-.89l.1-.76a1.38,1.38,0,0,1,1.36-1.19H38.7a1.39,1.39,0,0,1,1.36,1.19l.1.76a10.43,10.43,0,0,1,2.13.89l.61-.47a1.37,1.37,0,0,1,1.8.12l1.87,1.87a1.38,1.38,0,0,1,.12,1.81l-.46.61a10.4,10.4,0,0,1,.88,2.13l.76.1a1.44,1.44,0,0,1,.63.25l.08.06a1.35,1.35,0,0,1,.48,1.05v2.65a1.37,1.37,0,0,1-1.19,1.35l-.76.1a10.17,10.17,0,0,1-.88,2.13l.46.62a1.36,1.36,0,0,1-.12,1.8L44.7,50.61a1.38,1.38,0,0,1-1.8.12l-.61-.46a10.4,10.4,0,0,1-2.13.88l-.1.76a1.37,1.37,0,0,1-1.36,1.18Zm-2.46-1.58h2.27l.1-.72a1.36,1.36,0,0,1,1-1.14,8.3,8.3,0,0,0,2-.84,1.38,1.38,0,0,1,1.51.1l.58.44,1.61-1.61-.44-.58a1.34,1.34,0,0,1-.1-1.51,8.4,8.4,0,0,0,.84-2,1.38,1.38,0,0,1,1.14-1l.72-.09V40.27l-.72-.1a1.36,1.36,0,0,1-1.14-1,8.23,8.23,0,0,0-.84-2,1.38,1.38,0,0,1,.1-1.52l.44-.57-1.61-1.61-.58.44a1.34,1.34,0,0,1-1.51.09,8.79,8.79,0,0,0-2-.83,1.38,1.38,0,0,1-1-1.14l-.09-.72H36.25l-.1.72a1.35,1.35,0,0,1-1,1.14,8.3,8.3,0,0,0-2,.84,1.36,1.36,0,0,1-1.51-.1L31,33.47l-1.61,1.6.44.58a1.35,1.35,0,0,1,.1,1.51,8.57,8.57,0,0,0-.84,2,1.37,1.37,0,0,1-1.14,1l-.72.09v2.27l.72.1a1.36,1.36,0,0,1,1.14,1,8.23,8.23,0,0,0,.84,2,1.38,1.38,0,0,1-.1,1.52l-.44.58L31,49.35l.58-.44a1.38,1.38,0,0,1,1.51-.1,8.4,8.4,0,0,0,2,.84,1.38,1.38,0,0,1,1,1.14Z"/><path class="cls-2" d="M37.38,46.67a5.27,5.27,0,1,1,5.26-5.27A5.28,5.28,0,0,1,37.38,46.67Zm0-8.94a3.68,3.68,0,1,0,3.68,3.68A3.68,3.68,0,0,0,37.38,37.73Z"/><path class="cls-2" d="M37.42,60.23A2.58,2.58,0,1,1,40,57.66,2.58,2.58,0,0,1,37.42,60.23Zm0-3.56a1,1,0,1,0,1,1A1,1,0,0,0,37.42,56.67Z"/><path class="cls-2" d="M36.59,52.3h1.58v3.49H36.59Z"/><path class="cls-2" d="M21.87,60.23a2.58,2.58,0,1,1,2.58-2.57A2.57,2.57,0,0,1,21.87,60.23Zm0-3.56a1,1,0,1,0,1,1A1,1,0,0,0,21.87,56.67Z"/><path class="cls-2" d="M22.66,55.93H21.07v-3.7a.8.8,0,0,1,.24-.56l3.21-3.21,1.12,1.12-3,3Z"/><path class="cls-2" d="M52.89,60.23a2.58,2.58,0,1,1,2.58-2.57A2.58,2.58,0,0,1,52.89,60.23Zm0-3.56a1,1,0,1,0,1,1A1,1,0,0,0,52.89,56.67Z"/><path class="cls-2" d="M53.68,55.91H52.1V52.54l-2.89-2.89,1.12-1.12,3.12,3.12a.79.79,0,0,1,.23.56Z"/></g></g></svg>