<svg xmlns="http://www.w3.org/2000/svg" viewBox="0 0 74 75"><defs><style>.cls-1,.cls-2{fill:#3953a4;}.cls-1{opacity:0.1;isolation:isolate;}</style></defs><title>chesis of fancy rcAsset 8dots</title><g id="Layer_2" data-name="Layer 2"><g id="Layer_1-2" data-name="Layer 1"><rect class="cls-1" width="74" height="75" rx="5"/><path class="cls-2" d="M28.68,45.25a5,5,0,1,0,5,5A5,5,0,0,0,28.68,45.25Zm0,8.64a3.6,3.6,0,1,1,3.6-3.6A3.61,3.61,0,0,1,28.68,53.89Z"/><path class="cls-2" d="M28.68,48.13a2.16,2.16,0,1,0,2.16,2.16A2.16,2.16,0,0,0,28.68,48.13Zm0,2.88a.72.72,0,0,1,0-1.44.72.72,0,0,1,0,1.44Z"/><path class="cls-2" d="M59.65,18.43,57.93,15h-21l-1.72,3.43V33.29a8.62,8.62,0,0,0-15.72,3.35,5,5,0,0,0,.6,10h1.41a.79.79,0,0,1,0,.43l-.12.28a.77.77,0,0,1-.47.43,2.2,2.2,0,0,0-1.52,2.1v.72a2.21,2.21,0,0,0,1.52,2.1.75.75,0,0,1,.47.43l.12.28a.77.77,0,0,1,0,.63,2.2,2.2,0,0,0,.41,2.56l.51.51a2.19,2.19,0,0,0,2.56.41.73.73,0,0,1,.63,0l.28.11a.75.75,0,0,1,.43.47,2.21,2.21,0,0,0,2.1,1.52H29a2.22,2.22,0,0,0,2.11-1.52.73.73,0,0,1,.42-.47l.29-.12a.75.75,0,0,1,.62,0,2.22,2.22,0,0,0,2.57-.41l.51-.51A2.2,2.2,0,0,0,36,54.09a.73.73,0,0,1,0-.63l.12-.28a.71.71,0,0,1,.46-.43,2.11,2.11,0,0,0,.6-.3H59.65ZM42.31,40.93a5.05,5.05,0,0,0-5-4.33,4.39,4.39,0,0,0-.72.07V36.6H58.21v4.33ZM36.6,35.16V30.84H58.21v4.32Zm0-5.76V25.08H58.21V29.4Zm0-5.76V19.32H58.21v4.32ZM57,16.44l.72,1.44H37.05l.72-1.44ZM16.44,41.65A3.6,3.6,0,0,1,20,38h.74l.05-.66a7.2,7.2,0,0,1,14.35.24l.06,1,.9-.33a3.68,3.68,0,0,1,1.22-.21,3.6,3.6,0,0,1,0,7.2H36.19a2.3,2.3,0,0,0-.63-1.33l-.51-.51A2.23,2.23,0,0,0,32.48,43a.7.7,0,0,1-.63,0l-.28-.11a.77.77,0,0,1-.43-.47A2.2,2.2,0,0,0,29,40.93h-.72a2.21,2.21,0,0,0-2.1,1.52.75.75,0,0,1-.43.47l-.28.11a.7.7,0,0,1-.63,0,2.22,2.22,0,0,0-2.56.41l-.51.51a2.18,2.18,0,0,0-.63,1.33H20a3.6,3.6,0,0,1-3.6-3.6Zm20.16,9a.76.76,0,0,1-.53.73,2.19,2.19,0,0,0-1.36,1.28l-.09.23a2.15,2.15,0,0,0,.06,1.85.79.79,0,0,1-.14.9l-.51.5a.78.78,0,0,1-.9.15,2.18,2.18,0,0,0-1.85-.07l-.23.1a2.15,2.15,0,0,0-1.27,1.36.77.77,0,0,1-.74.53h-.72a.76.76,0,0,1-.73-.53,2.16,2.16,0,0,0-1.28-1.36l-.23-.1a2.26,2.26,0,0,0-.85-.17,2.23,2.23,0,0,0-1,.24.76.76,0,0,1-.89-.15l-.51-.5a.78.78,0,0,1-.15-.9,2.18,2.18,0,0,0,.07-1.85,2.29,2.29,0,0,1-.1-.23,2.16,2.16,0,0,0-1.36-1.28.76.76,0,0,1-.53-.73v-.72a.77.77,0,0,1,.53-.74,2.15,2.15,0,0,0,1.36-1.27,1.6,1.6,0,0,1,.1-.23,2.18,2.18,0,0,0-.07-1.85.78.78,0,0,1,.15-.9l.5-.51a.79.79,0,0,1,.9-.14,2.15,2.15,0,0,0,1.85.06l.23-.09a2.19,2.19,0,0,0,1.28-1.36.76.76,0,0,1,.73-.53H29a.77.77,0,0,1,.74.53,2.17,2.17,0,0,0,1.27,1.36l.23.09a2.14,2.14,0,0,0,1.85-.06.79.79,0,0,1,.9.14l.51.51a.79.79,0,0,1,.14.9,2.14,2.14,0,0,0-.06,1.85l.09.23a2.17,2.17,0,0,0,1.36,1.27.77.77,0,0,1,.53.74ZM38,51a2.19,2.19,0,0,0,0-.36v-.72a2.2,2.2,0,0,0-1.52-2.1.73.73,0,0,1-.46-.43l-.12-.28a.71.71,0,0,1,0-.43h1.41a5,5,0,0,0,5-4.32h15.9V51Z"/><path class="cls-2" d="M39.48,21.48a.72.72,0,1,1-.72-.72A.72.72,0,0,1,39.48,21.48Z"/><path class="cls-2" d="M42.37,21.48a.72.72,0,1,1-.72-.72A.72.72,0,0,1,42.37,21.48Z"/><path class="cls-2" d="M45.25,21.48a.72.72,0,1,1-.72-.72A.72.72,0,0,1,45.25,21.48Z"/><path class="cls-2" d="M56.77,27.24a.72.72,0,1,1-.72-.72A.72.72,0,0,1,56.77,27.24Z"/><path class="cls-2" d="M53.89,27.24a.72.72,0,1,1-.72-.72A.72.72,0,0,1,53.89,27.24Z"/><path class="cls-2" d="M51,27.24a.72.72,0,1,1-.72-.72A.72.72,0,0,1,51,27.24Z"/><path class="cls-2" d="M39.48,33A.72.72,0,0,1,38,33a.72.72,0,0,1,1.44,0Z"/><path class="cls-2" d="M42.37,33a.72.72,0,1,1-.72-.72A.72.72,0,0,1,42.37,33Z"/><path class="cls-2" d="M45.25,33a.72.72,0,1,1-.72-.72A.72.72,0,0,1,45.25,33Z"/><path class="cls-2" d="M56.77,38.77a.72.72,0,1,1-.72-.73A.72.72,0,0,1,56.77,38.77Z"/><path class="cls-2" d="M53.89,38.77a.72.72,0,1,1-.72-.73A.72.72,0,0,1,53.89,38.77Z"/><path class="cls-2" d="M51,38.77a.72.72,0,1,1-.72-.73A.73.73,0,0,1,51,38.77Z"/><path class="cls-2" d="M51,49.57h5.76V43.81H51Zm1.44-4.32h2.88v2.88H52.45Z"/><path class="cls-2" d="M43.81,49.57h5.76V43.81H43.81Zm1.44-4.32h2.88v2.88H45.25Z"/><path class="cls-2" d="M18.6,18.82V28H20V18.82l1.56,2.34,1.2-.8-3.48-5.22-3.48,5.22,1.2.8Z"/><path class="cls-2" d="M22.8,23.24l-1.2.8,3.48,5.22L28.56,24l-1.2-.8L25.8,25.58V16.44H24.36v9.14Z"/><path class="cls-2" d="M30.12,18.82V28h1.44V18.82l1.56,2.34,1.2-.8-3.48-5.22-3.48,5.22,1.2.8Z"/><path class="cls-2" d="M28,33.72V32.28a5.78,5.78,0,0,0-5.76,5.77h1.44A4.33,4.33,0,0,1,28,33.72Z"/></g></g></svg>