<svg xmlns="http://www.w3.org/2000/svg" viewBox="0 0 74 75"><defs><style>.cls-1,.cls-2,.cls-3{fill:#3953a4;}.cls-1{opacity:0.1;isolation:isolate;}.cls-2{stroke:#3953a4;stroke-width:0.5px;}</style></defs><title>Asset 4dots</title><g id="Layer_2" data-name="Layer 2"><g id="Layer_1-2" data-name="Layer 1"><rect class="cls-1" width="74" height="75" rx="5"/><path class="cls-2" d="M54.47,27.76a8.48,8.48,0,0,0,.55-3,8.72,8.72,0,0,0-16.27-4.35,7.68,7.68,0,0,0-4.33-1.3,7.88,7.88,0,0,0-7.86,7.42A7.88,7.88,0,0,0,17,34.17a7.85,7.85,0,0,0,6.37,7.73,1.35,1.35,0,0,0,.29.05,7.14,7.14,0,0,0,.74.09h1V55.19a2.24,2.24,0,0,0,2.24,2.24H47.17a2.25,2.25,0,0,0,2.24-2.24V42.05h.51a7.88,7.88,0,0,0,7.87-7.87,7.79,7.79,0,0,0-3.32-6.42ZM48.13,55.19a1,1,0,0,1-1,1H27.63a1,1,0,0,1-1-1V34h3.53a2.24,2.24,0,0,0,2.24-2.23V28.21H47.17a1,1,0,0,1,1,1v26ZM27.56,32.7l3.59-3.59v2.62a1,1,0,0,1-1,1H27.56Zm22.36,8.08h-.51V29.17a2.24,2.24,0,0,0-2.24-2.23H31.74l-.16,0-.06,0a.71.71,0,0,0-.18.12l-5.76,5.76h0a.94.94,0,0,0-.12.18l0,.06a.51.51,0,0,0,0,.17v7.48h-.94l-.61-.07-.18,0a6.59,6.59,0,0,1,1.2-13.07,6.68,6.68,0,0,1,2.12.35.63.63,0,0,0,.58-.1.61.61,0,0,0,.25-.54v-.35a6.6,6.6,0,0,1,6.59-6.6,6.5,6.5,0,0,1,4.15,1.47.65.65,0,0,0,.55.13.61.61,0,0,0,.43-.35A7.45,7.45,0,0,1,53.1,27.75a.64.64,0,0,0,.24.81,6.51,6.51,0,0,1,3.17,5.62,6.6,6.6,0,0,1-6.59,6.6Z"/><path class="cls-3" d="M35.06,40.46a5.63,5.63,0,0,0,7.74.08,5.55,5.55,0,0,0,1.81-4.13,5.64,5.64,0,1,0-9.55,4.05Zm1.39-.5L39,37.47,41.42,40a4.42,4.42,0,0,1-5,0Zm6.89-3.55a4.29,4.29,0,0,1-1,2.74l-2.74-2.84V32.09a4.38,4.38,0,0,1,3.72,4.32Zm-5-4.31v4l-2.82,2.92a4.36,4.36,0,0,1,2.82-7Z"/><path class="cls-3" d="M44.75,44.13H42.3a.64.64,0,0,0,0,1.28h2.45a.64.64,0,0,0,0-1.28Z"/><path class="cls-3" d="M30.16,45.41H40a.64.64,0,1,0,0-1.28H30.16a.64.64,0,0,0-.64.64.64.64,0,0,0,.64.64Z"/><path class="cls-3" d="M44.75,47.33H36.31a.64.64,0,0,0,0,1.28h8.44a.64.64,0,0,0,0-1.28Z"/><path class="cls-3" d="M30.16,48.61h3.41a.64.64,0,0,0,0-1.28H30.15a.64.64,0,1,0,0,1.28Z"/><path class="cls-3" d="M44.75,50.53H42.3a.64.64,0,0,0,0,1.28h2.45a.64.64,0,0,0,0-1.28Z"/><path class="cls-3" d="M39.51,50.53H30.16a.64.64,0,1,0,0,1.28h9.35a.64.64,0,1,0,0-1.28Z"/></g></g></svg>