<svg xmlns="http://www.w3.org/2000/svg" viewBox="0 0 74 75"><defs><style>.cls-1,.cls-2{fill:#3953a4;}.cls-1{opacity:0.1;isolation:isolate;}.cls-2{stroke:#3953a4;}</style></defs><title>Asset 6dots</title><g id="Layer_2" data-name="Layer 2"><g id="Layer_1-2" data-name="Layer 1"><rect class="cls-1" width="74" height="75" rx="5"/><path class="cls-2" d="M54.18,34.05a7.41,7.41,0,0,0-7.27-6.16c-3.12-8-14.67-7.8-17.49.21a7.46,7.46,0,0,0-8.92,6.12A6.65,6.65,0,0,0,16,40.55a6.75,6.75,0,0,0,6.8,6.72H35.22a5,5,0,0,0,4.11,4.18l-.34.34a.73.73,0,0,0,0,1,.62.62,0,0,0,.95,0l2-1.93-2-1.94a.7.7,0,0,0-1,1L39,50a3.62,3.62,0,0,1-2.51-3.44,3.64,3.64,0,0,1,7.27,0,5,5,0,0,0,10,.52A6.75,6.75,0,0,0,59,40.55a6.37,6.37,0,0,0-4.81-6.5Zm-.39,11.63a4.94,4.94,0,0,0-4.07-4l.35-.35a.7.7,0,1,0-1-1l-1.91,1.94,1.95,1.94a.64.64,0,0,0,1,0,.73.73,0,0,0,0-1L50,43.09a3.63,3.63,0,1,1-4.76,3.45,5,5,0,0,0-10-.6H22.8a5.47,5.47,0,0,1-5.46-5.39,5.39,5.39,0,0,1,4-5.25.71.71,0,0,0,.47-.61,6,6,0,0,1,7.84-5.17.62.62,0,0,0,.82-.47c2.08-7.5,12.81-7.71,15.24-.26a.65.65,0,0,0,.74.47,6,6,0,0,1,6.32,5.39.73.73,0,0,0,.52.6,5.34,5.34,0,0,1,4.37,5.3,5.29,5.29,0,0,1-3.86,5.13ZM38,27.41a4.68,4.68,0,0,0-4.46,3.36.69.69,0,0,0,.47.82.67.67,0,0,0,.83-.39A3.28,3.28,0,0,1,38,28.79a.66.66,0,0,0,.69-.69.64.64,0,0,0-.69-.69Z"/><rect class="cls-1" width="74" height="75" rx="5"/></g></g></svg>