<svg xmlns="http://www.w3.org/2000/svg" viewBox="0 0 84.7 84.5"><defs><style>.cls-1{fill:#3954a3;opacity:0.1;isolation:isolate;}.cls-2{fill:#3953a4;}</style></defs><title>Asset 11dots</title><g id="Layer_2" data-name="Layer 2"><g id="Layer_1-2" data-name="Layer 1"><path class="cls-1" d="M46.2,1.5l37,37a5,5,0,0,1,0,7.1L45.6,83a5,5,0,0,1-7.1,0L1.5,46a5,5,0,0,1,0-7.1L39.1,1.5A5,5,0,0,1,46.2,1.5Z"/><path class="cls-2" d="M28.3,31.7a4,4,0,0,1,1-2.5,3.32,3.32,0,0,1,2.5-1h21a4,4,0,0,1,2.5,1,3.32,3.32,0,0,1,1,2.5v21a4,4,0,0,1-1,2.5,3.17,3.17,0,0,1-2.5,1h-21a4,4,0,0,1-2.5-1,3.32,3.32,0,0,1-1-2.5ZM44,39.8l-4,.5-.1.7.8.1c.5.1.6.3.5.8L39.8,48c-.3,1.6.2,2.3,1.4,2.3a3.62,3.62,0,0,0,2.6-1l.2-.7a2.13,2.13,0,0,1-1.2.4c-.5,0-.7-.3-.5-.9Zm-1.7-1.9a1.66,1.66,0,0,0,1.2-.5,1.69,1.69,0,1,0-1.2.5Z"/></g></g></svg>