<svg xmlns="http://www.w3.org/2000/svg" viewBox="0 0 84.7 84.5"><defs><style>.cls-1{fill:#3954a3;opacity:0.1;isolation:isolate;}.cls-2{fill:#3953a4;}</style></defs><title>Asset 10dots</title><g id="Layer_2" data-name="Layer 2"><g id="Layer_1-2" data-name="Layer 1"><path class="cls-1" d="M46.2,1.5l37,37a5,5,0,0,1,0,7.1L45.6,83a5,5,0,0,1-7.1,0L1.5,46a5,5,0,0,1,0-7.1L39.1,1.5A5,5,0,0,1,46.2,1.5Z"/><path class="cls-2" d="M55.9,29.4H28.8a4.17,4.17,0,0,0-4.1,4.3V50.9a4.17,4.17,0,0,0,4.1,4.3H55.9A4.17,4.17,0,0,0,60,50.9V33.7A4.1,4.1,0,0,0,55.9,29.4Zm1.1,22-10.6-8-4.1,2.9-4.2-2.9-10.4,8,8.5-9.3L25.8,33.5,42.3,43l16.4-9.3L48.4,42.3Z"/></g></g></svg>