<svg xmlns="http://www.w3.org/2000/svg" viewBox="0 0 84.7 84.5"><defs><style>.cls-1{fill:#3954a3;opacity:0.1;isolation:isolate;}.cls-2{fill:#3953a4;}</style></defs><title>Asset 9dots</title><g id="Layer_2" data-name="Layer 2"><g id="Layer_1-2" data-name="Layer 1"><path class="cls-1" d="M46.2,1.5l37,37a5,5,0,0,1,0,7.1L45.6,83a5,5,0,0,1-7.1,0L1.5,46a5,5,0,0,1,0-7.1L39.1,1.5A5,5,0,0,1,46.2,1.5Z"/><path class="cls-2" d="M36.05,39.76a22,22,0,0,0,3.44,4.81,19.36,19.36,0,0,0,5.44,4,.51.51,0,0,0,.48,0,2.8,2.8,0,0,0,.66-.47,5.75,5.75,0,0,0,.59-.73c.87-1.17,2-2.58,3.49-1.87l.09,0,5.11,2.94s0,0,0,.05a2.3,2.3,0,0,1,1,2,5.36,5.36,0,0,1-3.21,4.7,11.94,11.94,0,0,1-3,.82,10.36,10.36,0,0,1-4.63-.39,20.45,20.45,0,0,1-4.65-2.24l-.11-.06c-.76-.48-1.58-1-2.37-1.58a29.6,29.6,0,0,1-7.84-8.91,14.58,14.58,0,0,1-2-9.16,6.56,6.56,0,0,1,2.23-4.17,6.12,6.12,0,0,1,4.45-1.18.65.65,0,0,1,.52.32l3.26,5.53a1.69,1.69,0,0,1,.27,1.85A3.79,3.79,0,0,1,38,37.48a6.66,6.66,0,0,1-.62.46c-.73.52-1.57,1.14-1.29,1.82Z"/></g></g></svg>