<svg xmlns="http://www.w3.org/2000/svg" viewBox="0 0 84.7 84.5"><defs><style>.cls-1{fill:#3954a3;opacity:0.1;isolation:isolate;}.cls-2{fill:#3953a4;}</style></defs><title>Asset 12dots</title><g id="Layer_2" data-name="Layer 2"><g id="Layer_1-2" data-name="Layer 1"><path class="cls-1" d="M46.2,1.5l37,37a5,5,0,0,1,0,7.1L45.6,83a5,5,0,0,1-7.1,0L1.5,46a5,5,0,0,1,0-7.1L39.1,1.5A5,5,0,0,1,46.2,1.5Z"/><path class="cls-2" d="M42.3,24.7a14.9,14.9,0,0,0,0,29.8h.9v5.3c8.5-4.1,14-12.3,14-20.1A14.9,14.9,0,0,0,42.3,24.7Zm1.8,25.4H40.6V46.6h3.5Zm0-6.1H40.6c0-5.7,5.3-5.3,5.3-8.8a3.5,3.5,0,1,0-7,0H35.4a7,7,0,1,1,14,0C49.3,39.6,44.1,40.1,44.1,44Z"/></g></g></svg>