<svg xmlns="http://www.w3.org/2000/svg" xmlns:xlink="http://www.w3.org/1999/xlink" width="972" height="499.939" viewBox="0 0 972 499.939">
  <defs>
    <clipPath id="clip-path">
      <rect id="Rectangle_2141" data-name="Rectangle 2141" width="301.63" height="499.939" fill="#f3f3f4"/>
    </clipPath>
    <clipPath id="clip-path-2">
      <rect id="Rectangle_2145" data-name="Rectangle 2145" width="682" height="403" transform="translate(0.032 -0.23)" fill="#fff" stroke="#707070" stroke-width="1"/>
    </clipPath>
  </defs>
  <g id="Group_4450" data-name="Group 4450" transform="translate(-0.032)">
    <g id="Group_4452" data-name="Group 4452" transform="translate(0 0)">
      <g id="Group_4449" data-name="Group 4449" transform="translate(670.402 0)">
        <g id="Mask_Group_142" data-name="Mask Group 142" transform="translate(0)" clip-path="url(#clip-path)">
          <g id="c">
            <path id="Path_8970" data-name="Path 8970" d="M130,130.7h-.216V615.076H0V0Z" fill="#d5dada"/>
            <path id="Path_8971" data-name="Path 8971" d="M320.215,0V130.7H130L0,0Z" fill="#275c7b"/>
            <rect id="Rectangle_2140" data-name="Rectangle 2140" width="190.434" height="484.373" transform="translate(129.781 130.704)" fill="#f99c34"/>
          </g>
        </g>
      </g>
      <g id="Mask_Group_143" data-name="Mask Group 143" transform="translate(0 97.168)" clip-path="url(#clip-path-2)">
        <g id="MaaS3.0_EcoGraphics-Journey" transform="translate(43.482 42.532)">
          <path id="Path_8994" data-name="Path 8994" d="M423.192,305.658c-104.452-19.813-201.539-38.167-292.037-55.273-89.6-16.848-77.651-74.709,9.13-122.171,60.638-32.943,147.348-54.473,218.457-56.238,14.707,0,27.931.377,41.108,1.553,13.907,1.177,27.178,3.035,40.8,4.706L667.2,105.084c66.638,7.906,145.889,185.044,212.457,192.95l148.807,17.695,4.894-4.918-149.89-17.6C817.046,285.4,738.077,108.4,671.7,100.613L446.722,74.141c-13.765-1.624-27.06-3.388-40.99-4.706S378.013,68,362.742,68H362.6c-74.827,1.859-166.055,24.472-230.34,58.968-44.543,24.1-71.039,50.638-75.627,74.168-4.941,25.484,15.53,46.9,64.05,56.191,91.063,17.483,188.9,36.261,294.132,56.473,58.662,11.318,79.086,56.614,40,104.546-1.318,1.647-2.706,3.294-4.141,4.918l14.636,3.365c1.412-1.647,2.777-3.341,4.094-5.036C512.255,368.061,488.371,317.988,423.192,305.658Z" transform="translate(4.027 -51.753)" fill="#d5dada"/>
          <path id="Path_8995" data-name="Path 8995" d="M420.811,351.873c-108.052-21.978-208.1-42.355-301.191-61.179C61.335,278.928,38.11,252.057,46.3,220.761c7.459-28.472,40.637-60.05,94.287-88.334a576.172,576.172,0,0,1,108.24-42.355A687.981,687.981,0,0,1,362.949,67.93c16.071-1.341,32.448-2.682,47.837-3.035,11.648-.235,22.589,0,33.39.682,14.871.894,29.2,2.353,43.3,3.953L720.19,95.72c65.744,7.389,144.007,184.009,209.751,191.421l153.466,17.271,4.706-4.706L933.565,282.529C868.032,275.258,790.028,98.755,724.425,91.484L493.238,65.812c-14.118-1.6-28.872-3.035-44-3.93-11.224-.659-22.684-.965-34.99-.682-15.789.4-32.519,1.671-49.155,3.13h-.282A713.9,713.9,0,0,0,245.885,87.39a613.846,613.846,0,0,0-113.111,44.073C76.3,160.993,40.816,194.148,32.369,224.2c-9.271,33.084,14.707,61.65,76,74.239,93.722,19.319,194.55,40.143,303.544,62.638,29.578,6.165,38.072,29.931,17.224,53.391-1.341,1.529-2.8,3.012-4.306,4.471l13.648,3.153a58.054,58.054,0,0,0,4.283-4.706C468.06,388.416,457.377,359.4,420.811,351.873Z" transform="translate(-30.441 -61.095)" fill="#d5dada"/>
          <path id="Path_8996" data-name="Path 8996" d="M545.338,288.42c-21.46-33.39-63.368-57.909-121.324-67.58q-146.807-24.425-275.143-45.7c-43.037-7.059-42.355-33.508-2.612-57.085,36.284-21.177,94.875-33.813,134.406-29.507a9.272,9.272,0,0,0,1.435.141l1.2.188L561.15,125.495c68.615,9.059,149.8,187.374,218.411,196.48l138.642,18.4,5.6-5.6-139.865-18.33c-68.38-8.965-149.3-187.115-217.681-196.033q-138.007-18-276.013-35.931l-2.847-.353h-.118c-1.435-.141-2.871-.353-4.377-.494h0c-43.461-3.459-105.534,10.33-144.9,33.107-45.037,26.378-46.379,56.214,1.977,64.356,86.357,14.471,178.432,30,277,46.661C529.455,246.842,583.834,328.94,519.454,426.874c-1.224,1.953-2.494,3.906-3.788,5.859L531.5,436.38c1.318-1.977,2.565-3.977,3.812-5.977C569.951,375.554,569.2,325.528,545.338,288.42Z" transform="translate(69.043 -31.315)" fill="#d5dada"/>
          <path id="Path_8997" data-name="Path 8997" d="M424.341,241.267c-99.369-17.107-192.2-32.943-279.143-47.908-54.426-9.412-51.979-43.108-.918-72.568C189.718,94.578,261.933,79.33,310.736,84.507h0a22.736,22.736,0,0,1,3.153.377l274.037,35.155c68.1,8.753,148.76,186.738,216.858,195.539l141.183,18.236,5.412-5.388-142.5-18.166c-67.862-8.659-148.242-186.5-216.152-195.115Q456.719,97.9,320.713,80.671l-3.436-.424a.353.353,0,0,1-.212,0c-53.085-5.6-131.394,10.777-181.35,39.3-56.309,32.143-59.815,69.674,0,80q131.159,22.73,281.049,48.92C516.51,265.88,560.3,338.8,501.8,424.735c-1.294,1.906-2.635,3.765-3.977,5.647l15.342,3.53c1.341-1.883,2.659-3.788,3.93-5.718C577.972,336.283,530.111,259.48,424.341,241.267Z" transform="translate(53.068 -36.658)" fill="#d5dada"/>
          <path id="Path_8998" data-name="Path 8998" d="M573.307,259.247c-28.848-39.037-80.71-67.156-150.478-78.074-94.852-14.848-183.8-28.707-267.448-41.743-20.825-3.247-21.789-15.93-2.965-27.46,17.766-10.848,47.885-17.53,67.744-15.177h.118a12.469,12.469,0,0,1,1.388.165q142.948,19.907,285.872,40C577.236,146.7,659.5,325.7,729.2,335.463l133.065,18.683,5.977-5.977L733.9,329.51c-69.439-9.624-151.419-188.456-220.858-198.057q-142.03-19.6-284.061-39.037l-1.529-.259h-.118c-24.66-2.8-61.626,5.318-83.6,18.66-23.531,14.33-22.848,30.19,3.106,34.284q126.194,19.86,269.213,42.637c67.18,10.659,116.735,38.025,143.866,75.792,30.59,42.637,34.8,101.181-2.353,167.467-1.2,2.118-2.353,4.235-3.694,6.353l16.471,3.788c1.223-2.141,2.353-4.306,3.6-6.447C611.756,364.711,606.2,303.767,573.307,259.247Z" transform="translate(99.806 -19.813)" fill="#d5dada"/>
          <path id="Path_8999" data-name="Path 8999" d="M559.77,273.855c-25.248-36.4-72.215-62.732-136.218-72.945-96.287-15.554-186.456-30.119-271.26-43.7-31.766-5.106-32.237-24.5-3.082-42.026,26.848-16.142,71.533-25.884,101.37-22.542h0a13.594,13.594,0,0,1,1.906.235q140.948,19.083,281.872,38.237c69.156,9.412,150.854,188.033,220.011,197.468l135.865,18.566,5.812-5.812L758.933,322.822c-68.9-9.412-150.336-187.8-219.234-197.045Q399.669,106.953,259.686,88.34a12.51,12.51,0,0,1-2.071-.282h-.259c-34.331-3.741-85.486,7.271-116.735,25.884-34.119,20.26-34.1,43.037,2.847,49.038q127.912,20.86,272.954,44.708c61.344,10.071,106.1,35.461,129.418,70.592,26.1,39.084,27.131,91.769-8.33,150.831-1.223,2.047-2.494,4.071-3.788,6.118l16.33,3.741c1.271-2.047,2.518-4.094,3.718-6.165C590.29,370.072,588.031,314.634,559.77,273.855Z" transform="translate(84.494 -25.597)" fill="#d5dada"/>
          <path id="Path_9000" data-name="Path 9000" d="M422.076,328.313c-106.17-20.919-204.716-40.237-296.485-58.167C73.636,259.98,52.224,236.779,58.247,209.3c5.53-25.154,34.119-53.556,81.839-79.039,54.9-29.3,130.5-51.767,198.339-58.826l7.059-.682a469.989,469.989,0,0,1,62.921-2.024c10.636.4,20.966,1.247,31.06,2.353,11.554,1.129,22.919,2.541,34.472,3.859l219.775,25.342c66.168,7.647,144.878,184.55,211.069,192.2l151.137,17.507,4.706-4.706-152.148-17.6C842.591,280.146,764,103.385,698.019,95.855l-218.363-24.9c-21.625-2.353-43.249-5.224-66.521-6.118a497.089,497.089,0,0,0-65.485,2.118l-7.294.706c-71.156,7.483-150.36,30.872-208.222,61.462-50.52,26.754-81.251,56.732-87.581,83.463-6.918,29.154,15.413,54.12,70.286,64.921,92.287,18.377,191.609,38.19,298.579,59.556,44.426,8.871,58.215,43.6,28.072,79.368-1.341,1.577-2.753,3.106-4.188,4.706l14.118,3.271c1.435-1.577,2.824-3.153,4.165-4.706C489.962,377.939,473.161,338.36,422.076,328.313Z" transform="translate(-13 -56.407)" fill="#d5dada"/>
          <path id="Path_9001" data-name="Path 9001" d="M423.908,283.62C321.244,264.8,225.687,247.289,136.365,231.005c-77.651-14.118-69.721-63.815,4.706-105.158,56.12-31.013,138.477-50.661,203.3-50.214,7.671,0,14.754.259,21.883.894,9.083.8,17.7,2.047,26.4,3.106Q516.806,94.67,640.907,109.776c67.133,8.189,146.76,185.609,213.869,193.821L1001.112,321.5l5.059-5.059L858.682,298.656c-66.9-8.071-146.336-185.35-213.234-193.4L398.918,75.633c-8.871-1.059-17.624-2.353-26.754-3.13-7.53-.659-15.06-.894-23.3-.941-68.662-.353-156.2,20.26-215.916,53.085-80.145,44.049-89.981,97.6-6.659,112.947,89.863,16.66,186.15,34.543,289.567,53.861,72.709,13.554,100.1,68.5,53.861,129.112-1.318,1.741-2.706,3.435-4.118,5.13l14.66,3.365c1.388-1.718,2.73-3.459,4.047-5.224C533.819,357.317,503.088,298.138,423.908,283.62Z" transform="translate(20.606 -46.939)" fill="#d5dada"/>
          <path id="Path_9002" data-name="Path 9002" d="M424.184,262.166c-101.064-17.93-195.3-34.59-283.284-50.144C75.014,200.4,79.72,158.867,142.123,123.36c54.944-30.825,140.265-48.614,198.1-42.684h.423c1.294.165,2.565.282,3.718.447q135.018,16.8,269.99,33.7c67.6,8.447,147.748,186.15,215.351,194.621l143.866,18.071,5.2-5.2-145-18.024C766.412,295.933,686.5,118.395,619.111,110.065Q487.175,93.758,355.192,77.546l-8.353-1.059h0c-62.05-6.33-153.348,12.612-212.716,45.6-68,38.331-74.168,83.533-2.847,96.31,88.687,15.907,183.538,32.943,285.378,51.32,86.428,15.6,122.006,80.239,68.427,152.948-1.271,1.812-2.612,3.6-3.977,5.388l15.318,3.53c1.341-1.835,2.683-3.671,3.953-5.506C556.59,347.582,516.729,278.685,424.184,262.166Z" transform="translate(37.154 -41.91)" fill="#d5dada"/>
        </g>
      </g>
    </g>
  </g>
</svg>
